<svg width="36" height="24" viewBox="0 0 36 24" fill="none" xmlns="http://www.w3.org/2000/svg">
<path d="M34.1 10H1.9C0.850659 10 0 10.8507 0 11.9V12.1C0 13.1493 0.850659 14 1.9 14H34.1C35.1493 14 36 13.1493 36 12.1V11.9C36 10.8507 35.1493 10 34.1 10Z" fill="#214CBA"/>
<path d="M34.1 20H1.9C0.850659 20 0 20.8507 0 21.9V22.1C0 23.1493 0.850659 24 1.9 24H34.1C35.1493 24 36 23.1493 36 22.1V21.9C36 20.8507 35.1493 20 34.1 20Z" fill="#214CBA"/>
<path d="M34.1 0H1.9C0.850659 0 0 0.850659 0 1.9V2.1C0 3.14934 0.850659 4 1.9 4H34.1C35.1493 4 36 3.14934 36 2.1V1.9C36 0.850659 35.1493 0 34.1 0Z" fill="#214CBA"/>
</svg>
